<svg width="111" height="109" viewBox="0 0 111 109" fill="none" xmlns="http://www.w3.org/2000/svg">
<path d="M47.998 106.063C47.8368 106.75 47.5426 107.332 47.1082 107.808C46.6739 108.284 46.1484 108.621 45.5389 108.803C44.9364 108.985 44.3058 109.006 43.6473 108.859C42.8766 108.684 42.2531 108.34 41.7627 107.843C41.2792 107.339 40.978 106.715 40.8729 105.979L41.9728 106.232C42.0709 106.701 42.2741 107.093 42.5894 107.409C42.9046 107.724 43.318 107.941 43.8294 108.053C44.3198 108.165 44.7892 108.151 45.2306 108.018C45.672 107.878 46.0573 107.626 46.3726 107.254C46.6949 106.883 46.9191 106.421 47.0452 105.853C47.1713 105.293 47.1783 104.781 47.0522 104.305C46.9261 103.836 46.6949 103.436 46.3586 103.114C46.0223 102.799 45.6089 102.581 45.1185 102.469C44.6071 102.35 44.1447 102.364 43.7173 102.504C43.297 102.645 42.9397 102.904 42.6454 103.282L41.5455 103.03C41.9658 102.42 42.4983 101.993 43.1568 101.762C43.8154 101.524 44.53 101.496 45.2937 101.678C45.9452 101.825 46.5057 102.119 46.9681 102.546C47.4375 102.974 47.7598 103.499 47.9419 104.116C48.1241 104.732 48.1381 105.384 47.977 106.07L47.998 106.063ZM35.6674 99.5059L33.3625 98.462L33.6777 97.7614L36.8445 99.1906L33.8669 105.776L33.0052 105.391L35.6674 99.5059ZM24.6751 99.9472L26.0763 97.9785L23.9324 96.4512L24.3808 95.8207L26.5246 97.348L27.9679 95.3163L25.5648 93.6138L26.0132 92.9833L29.1799 95.2322L24.9833 101.131L21.8166 98.8753L22.265 98.2448L24.6681 99.9472H24.6751ZM17.7672 87.4275L19.939 89.7115L21.5014 89.0249L22.1879 89.7465L15.189 92.8151L14.4393 92.0305L17.8442 85.1856L18.5308 85.9072L17.7672 87.4345V87.4275ZM17.3959 88.1492L15.6584 91.6171L19.2034 90.0408L17.3959 88.1492ZM12.0083 75.9658L12.4777 76.7855L9.38101 82.9437L14.3693 80.0783L14.8387 80.898L8.56131 84.506L8.09191 83.6863L11.1815 77.5351L6.20029 80.4005L5.73089 79.5808L12.0083 75.9728V75.9658ZM7.06904 67.0892L7.93077 70.1228L9.63322 70.2419L9.90646 71.2017L2.28395 70.6552L1.98269 69.6043L8.18299 65.1345L8.45622 66.0943L7.06904 67.0892ZM6.40347 67.5586L3.25078 69.8145L7.11808 70.0737L6.40347 67.5586ZM0.238203 59.5577L7.44736 59.0113L7.51742 59.9501L0.308263 60.4965L0.238203 59.5577ZM0.168144 50.52C0.231197 49.7354 0.427365 49.0628 0.763652 48.5093C1.09994 47.9558 1.55533 47.5495 2.12281 47.2833C2.6903 47.017 3.34185 46.9119 4.07748 46.968C4.81311 47.024 5.44365 47.2272 5.96209 47.5775C6.48053 47.9278 6.85886 48.3972 7.10407 48.9927C7.34927 49.5882 7.43335 50.2818 7.3773 51.0665L7.20915 53.3084L0 52.7619L0.168144 50.52ZM6.59963 51.0104C6.66969 50.0786 6.48053 49.35 6.02514 48.8246C5.56976 48.2991 4.89718 48.0049 4.00742 47.9348C3.11066 47.8648 2.39605 48.0609 1.85659 48.5163C1.31712 48.9717 1.00886 49.6583 0.938802 50.5831L0.840718 51.8862L6.50856 52.3206L6.60664 51.0175L6.59963 51.0104ZM12.3515 33.7547C12.2114 34.0349 12.0083 34.2171 11.763 34.3082C11.5108 34.3993 11.2656 34.3852 11.0204 34.2591C10.7752 34.133 10.6141 33.9369 10.537 33.6776C10.4599 33.4184 10.495 33.1522 10.6351 32.872C10.7752 32.5987 10.9714 32.4166 11.2236 32.3325C11.4758 32.2414 11.728 32.2624 11.9802 32.3885C12.2184 32.5147 12.3796 32.7038 12.4496 32.963C12.5197 33.2223 12.4917 33.4885 12.3515 33.7547ZM91.2389 23.9603C91.0357 23.7221 90.9376 23.4699 90.9446 23.2037C90.9586 22.9375 91.0637 22.7133 91.2669 22.5381C91.4771 22.356 91.7153 22.2789 91.9885 22.3069C92.2618 22.335 92.493 22.4611 92.6961 22.6993C92.8923 22.9305 92.9904 23.1827 92.9764 23.4489C92.9624 23.7221 92.8503 23.9463 92.6471 24.1285C92.4439 24.3036 92.2057 24.3807 91.9395 24.3457C91.6733 24.3177 91.4351 24.1845 91.2389 23.9603ZM101.475 31.2466C102.119 30.9523 102.764 30.8402 103.408 30.8963C104.053 30.9523 104.634 31.1695 105.153 31.5408C105.671 31.9121 106.064 32.4026 106.344 33.0121C106.666 33.7267 106.778 34.4343 106.673 35.1279C106.568 35.8215 106.253 36.431 105.727 36.9635L105.258 35.9336C105.573 35.5693 105.755 35.1699 105.818 34.7285C105.874 34.2872 105.797 33.8318 105.58 33.3484C105.37 32.886 105.083 32.5217 104.697 32.2554C104.319 31.9892 103.885 31.8421 103.394 31.807C102.904 31.779 102.399 31.8841 101.867 32.1223C101.342 32.3605 100.935 32.6688 100.634 33.0541C100.333 33.4394 100.158 33.8668 100.108 34.3292C100.059 34.7916 100.136 35.254 100.347 35.7094C100.564 36.1858 100.851 36.5501 101.222 36.8023C101.587 37.0475 102.014 37.1736 102.49 37.1806L102.96 38.2105C102.217 38.2526 101.559 38.0774 100.97 37.6991C100.382 37.3208 99.9333 36.7673 99.604 36.0527C99.3308 35.4432 99.2187 34.8196 99.2818 34.1891C99.3448 33.5585 99.562 32.9841 99.9403 32.4586C100.319 31.9402 100.83 31.5338 101.475 31.2396V31.2466ZM102.932 47.6546C102.813 46.996 102.862 46.3655 103.072 45.763C103.282 45.1605 103.639 44.656 104.137 44.2427C104.634 43.8293 105.23 43.5561 105.923 43.437C106.617 43.3109 107.269 43.3599 107.878 43.5771C108.488 43.7943 108.999 44.1446 109.405 44.635C109.812 45.1254 110.078 45.6999 110.19 46.3585C110.309 47.024 110.26 47.6616 110.05 48.2571C109.84 48.8596 109.482 49.364 108.992 49.7774C108.495 50.1907 107.899 50.457 107.199 50.5831C106.498 50.7092 105.846 50.6601 105.237 50.45C104.627 50.2328 104.123 49.8825 103.717 49.3921C103.31 48.9016 103.044 48.3272 102.925 47.6616L102.932 47.6546ZM103.738 47.5075C103.829 48.0049 104.025 48.4322 104.326 48.7896C104.627 49.1469 105.013 49.3991 105.482 49.5532C105.951 49.7073 106.47 49.7283 107.03 49.6303C107.605 49.5252 108.081 49.322 108.467 49.0208C108.852 48.7195 109.125 48.3482 109.286 47.9068C109.447 47.4724 109.482 47.003 109.391 46.4986C109.3 45.9942 109.104 45.5668 108.803 45.2165C108.502 44.8592 108.116 44.614 107.654 44.4599C107.185 44.3057 106.666 44.2847 106.099 44.3828C105.531 44.4809 105.055 44.684 104.669 44.9923C104.284 45.2936 104.011 45.6719 103.85 46.1063C103.689 46.5476 103.653 47.01 103.745 47.5075H103.738ZM103.226 62.1149L103.296 61.1761L109.321 57.8273L103.583 57.3929L103.653 56.4541L110.87 57.0006L110.8 57.9394L104.781 61.2882L110.512 61.7226L110.442 62.6614L103.226 62.1149ZM100.143 73.0933L100.445 72.1965L107.107 70.445L101.657 68.6025L101.958 67.7057L108.817 70.0247L108.516 70.9214L101.86 72.6729L107.304 74.5155L107.002 75.4123L100.143 73.0933ZM102.624 82.4813L100.592 81.1782L99.1697 83.3991L98.5181 82.9787L99.9403 80.7649L97.8455 79.4197L96.2552 81.8998L95.6036 81.4795L97.7054 78.2077L103.801 82.117L101.699 85.3888L101.047 84.9684L102.638 82.4883L102.624 82.4813ZM95.2043 88.1281C95.7157 88.6186 96.066 89.172 96.2482 89.7886C96.4373 90.4051 96.4583 91.0216 96.3042 91.6451C96.1571 92.2617 95.8488 92.8151 95.3864 93.2985C94.84 93.866 94.2304 94.2374 93.5509 94.3985C92.8713 94.5596 92.1847 94.4966 91.4911 94.2093L92.2688 93.3896C92.7242 93.5438 93.1655 93.5648 93.5929 93.4597C94.0273 93.3476 94.4196 93.1024 94.7839 92.7241C95.1342 92.3597 95.3584 91.9534 95.4635 91.498C95.5686 91.0426 95.5476 90.5872 95.3934 90.1248C95.2393 89.6624 94.9521 89.2281 94.5317 88.8287C94.1183 88.4294 93.677 88.1702 93.2006 88.0371C92.7312 87.9039 92.2688 87.9039 91.8274 88.0301C91.379 88.1562 90.9867 88.4014 90.6364 88.7657C90.2721 89.144 90.0479 89.5504 89.9498 89.9847C89.8587 90.4191 89.9007 90.8535 90.0759 91.3018L89.2982 92.1216C88.983 91.449 88.8919 90.7694 89.025 90.0828C89.1581 89.3962 89.4944 88.7727 90.0409 88.1982C90.5033 87.7148 91.0357 87.3785 91.6452 87.2034C92.2548 87.0212 92.8643 87.0142 93.4948 87.1683C94.1183 87.3224 94.6858 87.6447 95.1973 88.1351L95.2043 88.1281ZM83.5043 102.518L83.0909 101.874L84.7514 100.809L81.2624 95.3723L82.0541 94.8609L85.543 100.298L87.2105 99.2256L87.6238 99.8702L83.5043 102.511V102.518ZM74.2774 98.9033C74.5647 98.7772 74.8309 98.7562 75.0831 98.8403C75.3353 98.9244 75.5245 99.0925 75.6296 99.3377C75.7417 99.5899 75.7487 99.8421 75.6436 100.094C75.5385 100.347 75.3493 100.536 75.0621 100.662C74.7888 100.788 74.5156 100.809 74.2634 100.718C74.0042 100.627 73.822 100.459 73.7099 100.206C73.5978 99.9612 73.5978 99.716 73.7029 99.4638C73.808 99.2186 73.9972 99.0294 74.2774 98.9033ZM68.3363 100.977C68.6376 100.893 68.9038 100.907 69.142 101.033C69.3802 101.159 69.5414 101.348 69.6114 101.608C69.6885 101.874 69.6535 102.126 69.5204 102.357C69.3802 102.588 69.163 102.75 68.8618 102.834C68.5675 102.918 68.3013 102.897 68.0631 102.771C67.8249 102.645 67.6638 102.448 67.5867 102.182C67.5166 101.923 67.5447 101.678 67.6848 101.447C67.8249 101.215 68.0421 101.061 68.3293 100.977H68.3363ZM62.122 102.21C62.4303 102.168 62.6965 102.231 62.9137 102.385C63.1309 102.546 63.257 102.757 63.292 103.023C63.3271 103.296 63.257 103.541 63.0889 103.751C62.9207 103.962 62.6755 104.088 62.3672 104.123C62.066 104.165 61.8068 104.102 61.5826 103.941C61.3654 103.78 61.2393 103.562 61.2043 103.289C61.1692 103.023 61.2393 102.785 61.4074 102.581C61.5826 102.378 61.8208 102.252 62.122 102.21Z" fill="#0689D2"/>
<path fill-rule="evenodd" clip-rule="evenodd" d="M18.5307 23.2599L20.1842 21.3472L20.7657 21.8517L18.4887 24.4789L13.024 19.7499L13.6406 19.0353L18.5237 23.2669L18.5307 23.2599ZM27.022 14.5094L24.4508 16.338L24.9062 17.9844L24.0935 18.5589L22.0618 11.1886L22.9515 10.558L29.2359 14.9087L28.4232 15.4832L27.022 14.5094ZM26.3564 14.04L23.1757 11.8191L24.2266 15.5533L26.3564 14.04ZM31.5969 5.34558L33.4815 9.51414C33.7477 10.1026 34.084 10.467 34.5044 10.6211C34.9177 10.7752 35.3801 10.7332 35.8916 10.502C36.396 10.2708 36.7253 9.95551 36.8864 9.54216C37.0476 9.12881 36.9915 8.63138 36.7253 8.04288L34.8407 3.87432L35.7024 3.48199L37.58 7.63653C37.8252 8.183 37.9303 8.69444 37.8743 9.17084C37.8252 9.64725 37.6501 10.0606 37.3628 10.4109C37.0686 10.7612 36.6903 11.0414 36.2279 11.2586C35.7585 11.4688 35.3031 11.5669 34.8407 11.5529C34.3853 11.5389 33.9579 11.3917 33.5726 11.1185C33.1873 10.8453 32.872 10.4319 32.6198 9.88545L30.7422 5.73091L31.6039 5.34558H31.5969ZM49.7284 7.55947L48.7966 7.72761L44.0465 2.73235L45.0624 8.40019L44.1306 8.56833L42.8555 1.44325L43.7873 1.2751L48.5304 6.26336L47.5215 0.609536L48.4463 0.448398L49.7214 7.57348L49.7284 7.55947ZM58.1916 0.168159C58.9763 0.231213 59.6488 0.42738 60.2023 0.763667C60.7558 1.09995 61.1621 1.55534 61.4284 2.12283C61.6946 2.69031 61.7997 3.34187 61.7436 4.0775C61.6876 4.81312 61.4844 5.44366 61.1341 5.9621C60.7838 6.48055 60.3144 6.85887 59.7189 7.10408C59.1234 7.34929 58.4298 7.43336 57.6451 7.37731L55.4032 7.20917L55.9497 1.52588e-05L58.1916 0.168159ZM57.7012 6.59965C58.633 6.66971 59.3616 6.48055 59.8871 6.02516C60.4125 5.56977 60.7138 4.8972 60.7768 4.00744C60.8469 3.11067 60.6507 2.39606 60.1953 1.8566C59.7399 1.31714 59.0533 1.00888 58.1286 0.938817L56.8254 0.840733L56.3911 6.50857L57.6942 6.60665L57.7012 6.59965ZM70.326 9.75234L69.4782 6.43851L68.3783 6.12324L67.5726 8.96767L66.6618 8.70845L68.6375 1.75852L70.8794 2.39606C71.4049 2.54319 71.8252 2.76037 72.1335 3.04061C72.4418 3.32085 72.6449 3.64312 72.736 4.00043C72.8271 4.35773 72.8201 4.72905 72.708 5.12839C72.5749 5.6048 72.3157 5.99013 71.9373 6.27737C71.559 6.56462 71.0756 6.69073 70.4871 6.64869L71.4049 10.0606L70.319 9.75234H70.326ZM68.5885 5.40163L69.9266 5.77995C70.417 5.92007 70.8234 5.90606 71.1387 5.73091C71.4539 5.55576 71.6711 5.26851 71.7832 4.86217C71.9023 4.44881 71.8673 4.09851 71.6921 3.80426C71.517 3.51001 71.1737 3.29283 70.6763 3.1457L69.3381 2.76738L68.5885 5.40163ZM84.429 8.47025L80.1484 11.2026L78.7892 13.5636L77.9695 13.0942L79.3287 10.7332L79.5248 5.65384L80.4356 6.17929L80.1554 10.2428L83.5252 7.95881L84.436 8.47725L84.429 8.47025Z" fill="#0689D2"/>
<path fill-rule="evenodd" clip-rule="evenodd" d="M75.1741 80.6523C75.2722 79.5804 75.3142 78.5015 75.3142 77.4086C75.3142 63.1794 67.1802 50.8559 55.3191 44.8168C43.451 50.8559 35.324 63.1794 35.324 77.4086C35.324 78.5155 35.3731 79.6014 35.4712 80.6804L32.5847 82.2707C5.91994 61.8273 30.7491 33.6212 53.953 21.2346H56.6993C79.8751 33.6142 104.676 61.7782 78.1376 82.2147L75.6014 80.8135L75.1741 80.6523Z" fill="#0689D2"/>
<path fill-rule="evenodd" clip-rule="evenodd" d="M75.1741 80.6519C75.2722 79.58 75.3142 78.5011 75.3142 77.4081C75.3142 63.179 67.1803 50.8555 55.3192 44.8163C43.451 50.8555 35.3241 63.179 35.3241 77.4081C35.3241 78.5151 35.3731 79.601 35.4712 80.6799L32.6478 82.2353C30.6931 80.6379 28.9136 78.8374 27.3373 76.8617C29.1658 52.9433 48.3833 33.894 72.3787 32.3317C89.4523 47.927 98.5671 66.703 78.1517 82.2213L75.6015 80.813L75.1741 80.6519Z" fill="#0689D2"/>
<path fill-rule="evenodd" clip-rule="evenodd" d="M83.0839 77.1354C81.5846 78.9779 79.9031 80.6664 78.0676 82.1797L75.6015 80.8205L75.1741 80.6594C75.2722 79.5875 75.3142 78.5085 75.3142 77.4156C75.3142 63.1865 67.1803 50.8629 55.3191 44.8238C43.451 50.8629 35.3241 63.1865 35.3241 77.4156C35.3241 78.5226 35.3731 79.6085 35.4712 80.6874L32.6478 82.2427C30.7842 80.7154 29.0817 79.006 27.5614 77.1424C29.369 59.4593 40.1722 44.4385 55.3262 36.7319C70.4801 44.4385 81.2833 59.4593 83.0839 77.1424V77.1354Z" fill="#0689D2"/>
<path fill-rule="evenodd" clip-rule="evenodd" d="M31.8561 81.5693C30.3008 80.2172 28.8646 78.7319 27.5614 77.1345C29.0187 62.8353 36.361 50.2806 47.1292 41.9225C49.9666 42.581 52.6779 43.5829 55.2211 44.872C43.409 50.9251 35.3311 63.2206 35.3311 77.4077C35.3311 78.4727 35.3801 79.5236 35.4642 80.5604V80.5815V80.6095V80.6305V80.6585V80.6866L35.4712 80.8056C35.4712 81.8495 34.6235 82.6973 33.5796 82.6973C32.8089 82.6973 32.1504 82.2349 31.8561 81.5763V81.5693Z" fill="#0689D2"/>
<path fill-rule="evenodd" clip-rule="evenodd" d="M75.7206 80.8837C76.239 79.0411 76.5192 77.1004 76.5192 75.0897C76.5192 67.4182 72.0705 60.0829 67.7267 54.6813C63.306 49.1816 58.5909 45.1882 57.3088 44.1373C56.1459 43.1845 54.4924 43.1845 53.3294 44.1373C52.0474 45.1882 47.3323 49.1816 42.9116 54.6813C38.5608 60.0899 34.119 67.4252 34.119 75.0897C34.119 77.1285 34.4063 79.1042 34.9458 80.9677L32.5567 82.2849C5.96201 62.0796 30.6441 33.6844 53.946 21.2347H53.953C54.3593 21.0105 54.8217 20.8774 55.3191 20.8774C55.8166 20.8774 56.279 21.0035 56.6853 21.2347H56.6993C79.9732 33.6704 104.634 62.0306 78.1657 82.2288L75.7276 80.8837H75.7206Z" fill="#0689D2"/>
<path fill-rule="evenodd" clip-rule="evenodd" d="M75.7205 80.883C76.2389 79.0404 76.5192 77.0998 76.5192 75.0891C76.5192 67.4175 72.0704 60.0822 67.7267 54.6806C63.3059 49.1809 58.5909 45.1875 57.3088 44.1366C56.1458 43.1838 54.4924 43.1838 53.3294 44.1366C52.0473 45.1875 47.3323 49.1809 42.9115 54.6806C38.5608 60.0893 34.119 67.4245 34.119 75.0891C34.119 77.1278 34.4062 79.1035 34.9457 80.9671L32.4726 82.3332C30.588 80.9601 28.8715 79.4468 27.3442 77.5341C29.8663 53.4756 48.5233 33.7608 72.5118 32.1984C89.3611 46.925 98.4899 66.9411 78.1796 82.2352L75.7275 80.876L75.7205 80.883Z" fill="#0689D2"/>
<path fill-rule="evenodd" clip-rule="evenodd" d="M83.1892 77.7942C81.6549 79.4967 80.0225 80.8698 78.3341 82.1169C77.9978 82.4322 77.5424 82.6213 77.045 82.6213C76.0011 82.6213 75.1604 81.7736 75.1604 80.7297C75.1604 80.0151 75.5597 79.3846 76.1482 79.0693C76.3934 77.7802 76.5195 76.449 76.5195 75.0899C76.5195 67.4183 72.0707 60.0831 67.727 54.6815C63.3063 49.1818 58.5912 45.1884 57.3091 44.1375C56.1461 43.1846 54.4927 43.1846 53.3297 44.1375C52.0476 45.1884 47.3326 49.1818 42.9118 54.6815C38.5611 60.0901 34.1193 67.4253 34.1193 75.0899C34.1193 77.1286 34.4066 79.1043 34.946 80.9679L32.6551 82.236C30.7915 80.7087 29.089 78.9992 27.5687 77.1356C29.3763 59.4525 40.1795 44.4317 55.3334 36.7251C70.4874 44.4317 81.3957 60.1111 83.2032 77.8012L83.1892 77.7942Z" fill="#0689D2"/>
<path fill-rule="evenodd" clip-rule="evenodd" d="M32.6478 82.2349C30.7842 80.7076 29.0817 78.9981 27.5614 77.1345C29.0187 62.8353 36.361 50.2806 47.1292 41.9225C49.322 42.4339 51.4378 43.1485 53.4626 44.0383C53.4205 44.0733 53.3785 44.1013 53.3365 44.1363C52.0544 45.1872 47.3393 49.1807 42.9186 54.6803C38.5678 60.089 34.1261 67.4242 34.1261 75.0888C34.1261 77.1275 34.4133 79.1032 34.9528 80.9668L32.6548 82.2349H32.6478Z" fill="#0689D2"/>
<path fill-rule="evenodd" clip-rule="evenodd" d="M74.0953 85.0311L74.0322 85.0732L74.1303 84.891L74.0953 85.0381V85.0311ZM36.6063 85.0732L36.5432 85.0311L36.5082 84.884L36.6063 85.0661V85.0732Z" fill="#0689D2"/>
<path fill-rule="evenodd" clip-rule="evenodd" d="M54.1141 54.2322C54.8217 53.6507 55.8235 53.6507 56.5312 54.2322C57.3088 54.8697 60.1743 57.2938 62.8576 60.6357C65.4988 63.9215 68.1961 68.3773 68.1961 73.0363C68.1961 80.1473 62.4302 85.9133 55.3191 85.9133C48.201 85.9133 42.4351 80.1473 42.4351 73.0363C42.4351 68.3773 45.1394 63.9215 47.7737 60.6357C50.457 57.2938 53.3224 54.8697 54.1001 54.2322H54.1141Z" fill="#0689D2"/>
</svg>
